<svg version="1.2" baseProfile="tiny-ps" xmlns="http://www.w3.org/2000/svg" viewBox="0 0 748 228" width="748" height="228">
	<title>Fung_logo_20210817_banner-svg</title>
	<style>
		tspan { white-space:pre }
		.shp0 { fill: #000000 } 
	</style>
	<g id="Layer">
		<path id="Layer" class="shp0" d="M95.52 72.35L95.4 71.99L87.26 69.88C86.14 69.29 85.11 68.37 84.02 67.41C82.66 66.2 81.25 64.95 79.63 64.37C79.13 64.03 78.66 64.02 77.82 63.99L77.48 63.98L77.48 64.33C77.47 67.4 77.84 71.44 79.65 73.61C78.48 73.48 77.48 73.19 76.51 72.91C75.28 72.55 74.11 72.22 72.8 72.28L72.48 72.29L72.49 72.63C72.54 75.26 73.34 76.2 74.37 77.39C74.44 77.47 74.51 77.55 74.58 77.64C72.4 78.38 69.59 78.95 67.78 79.19L67.49 79.23L67.49 80.84L67.75 80.9C69.89 81.43 71.67 81.82 73.41 81.82C75.08 81.82 76.71 81.46 78.59 80.53L78.7 80.47L78.75 80.35C78.79 80.26 78.83 80.17 78.87 80.07C79.02 79.7 79.2 79.28 79.39 79.05L79.48 78.94L79.47 78.8C79.4 77.82 79.34 77.33 79 76.99C79.92 77.15 80.87 77.22 81.63 76.76C82.66 76.74 83.37 76.63 84.03 76.4L84.18 76.35L84.24 76.2C84.31 76.01 84.34 75.9 84.37 75.84C84.38 75.82 84.38 75.8 84.38 75.8C84.39 75.79 84.4 75.77 84.42 75.75C84.45 75.72 84.48 75.67 84.53 75.61L84.63 75.48L84.6 75.32C84.31 73.97 83.83 73.68 83.14 73.39C82.82 73.26 82.49 73.12 82.12 72.74C81.68 72.29 81.47 71.6 81.25 70.86C81.06 70.24 80.86 69.6 80.51 69.07L80.51 68.81C81.9 70.92 85.06 73.21 87.24 73.99C88.03 74.28 89 74.27 89.94 74.27C91 74.27 92 74.26 92.66 74.65L92.74 74.7L95.41 74.7L95.49 74.48C95.56 74.29 95.59 74.18 95.61 74.12C95.62 74.09 95.62 74.08 95.62 74.08C95.63 74.07 95.64 74.05 95.66 74.03C95.69 74 95.72 73.95 95.77 73.89L95.86 73.77L95.84 73.62C95.71 72.89 95.65 72.73 95.52 72.35Z" />
		<path id="Layer" class="shp0" d="M189.12 80.66C189.61 79.9 190.09 79.31 190.78 78.86L190.49 78.76L190.49 78.57C190.94 78.35 190.94 78.16 190.95 78C190.97 77.13 190.99 76.73 190.07 76.2C189.59 75.94 186.96 75.96 186 76.7L183.98 76.7C185.36 75.52 186.21 74.01 187.04 72.54C187.68 71.4 188.29 70.33 189.12 69.48L189.23 69.37L189.22 69.21C189.15 68.27 189.05 67.95 188.86 67.4L188.76 67.12L188.47 67.17C186.55 67.5 185.21 68.38 183.93 69.24C183.14 69.76 182.39 70.26 181.52 70.64L176.69 71.67C175.38 72.04 171.89 73.03 170.41 72.06L170.32 72.69L170.21 72.69C169.11 72.02 168.38 72.12 167.68 72.36L167.32 72.49L167.49 72.84C168.03 73.98 169.53 74.73 171.82 75.01C175.68 75.49 181.08 74.55 183.27 73.15C182.93 73.47 182.61 73.8 182.3 74.12C181.33 75.13 180.41 76.09 178.78 76.5L178.48 76.58L178.52 76.88C178.83 79.25 180.49 79.84 182.32 79.94L182.32 79.97C182.45 81.46 182.82 81.96 183.3 82.59C183.45 82.78 183.6 82.98 183.76 83.24L183.83 83.35L183.96 83.38C184.31 83.47 184.75 83.62 185.22 83.79C186.39 84.19 187.75 84.66 188.87 84.66C189.3 84.66 189.69 84.59 190.02 84.42C191.42 84.26 191.88 83.82 192.42 83.31C192.65 83.1 192.88 82.87 193.22 82.64L193.49 82.46L193.33 82.18C192.65 81.1 190.59 80.73 189.12 80.66Z" />
		<path id="Layer" fill-rule="evenodd" class="shp0" d="M168.17 174.3L168.17 174.42L168.1 174.52C168.05 174.58 168.02 174.63 167.99 174.66C167.97 174.68 167.96 174.7 167.95 174.71C167.95 174.71 167.95 174.72 167.94 174.75C167.92 174.81 167.89 174.92 167.82 175.11L167.77 175.26L167.63 175.31C167.02 175.54 166.68 175.82 166.35 176.08C165.76 176.55 165.21 176.99 163.53 177.06L163.41 177.06L163.31 176.98C163.25 176.92 163.2 176.89 163.17 176.86C163.15 176.84 163.13 176.83 163.12 176.82C163.12 176.82 163.1 176.82 163.08 176.81C163.02 176.79 162.91 176.75 162.73 176.68L162.51 176.6L162.51 174.88L162.65 174.78C163.03 174.5 163.37 174.16 163.68 173.8C162.49 173.19 161.94 172.57 161.82 170.62L161.81 170.44L161.96 170.33C162.55 169.89 163.2 169.18 163.73 168.59C161.35 166.65 160.26 163.14 159.11 159.43C157.79 155.18 156.43 150.78 153.01 148.25C152.8 148.1 152.6 147.94 152.38 147.78C150.58 146.44 148.35 144.77 146.23 144.19C143.35 143.4 141.3 143.99 139.31 144.56C136.95 145.23 134.71 145.87 131.51 144.11L131.51 144.85L131.2 144.88C127.22 145.3 123.87 144.42 120.63 143.56L120.4 143.5C115.63 142.24 107.13 149.29 105.63 151.91C104.98 153.05 104.8 154.29 104.61 155.6C104.46 156.61 104.31 157.65 103.93 158.71C102.98 161.39 101.72 163.85 100.5 166.24C100.14 166.96 99.78 167.66 99.44 168.35C99.39 168.45 99.34 168.53 99.3 168.59L99.38 168.64L99.42 168.7C99.58 168.94 99.72 169.13 99.86 169.32C100.39 170.05 100.77 170.58 100.85 172.3L100.86 172.48L100.72 172.59C100.63 172.66 100.53 172.73 100.44 172.8C99.98 173.13 99.54 173.46 99.24 173.93C99.9 174.42 100.26 174.87 100.51 176.01L100.59 176.37L100.22 176.42C99.95 176.46 99.71 176.51 99.47 176.56C98.73 176.72 98.03 176.86 97.27 176.4C95.44 175.82 94.45 174.46 94.32 172.34L94.3 172.08L94.54 171.99C94.76 171.91 95 171.83 95.25 171.75C95.83 171.56 96.48 171.35 96.98 171.07C96.3 170.88 95.8 170.72 95.38 169.74C95.1 169.32 95.08 169.08 95.02 168.46L94.97 167.98L95.22 167.89C98.51 166.71 100.14 161.74 101.2 157.53L101.56 152.67C101.92 151.68 102.5 150.86 103.07 150.07C103.68 149.22 104.25 148.42 104.58 147.43C101.79 145.28 97.68 135.43 99.49 129.71C100.83 125.48 105.4 122.02 109.02 120.91C110.55 120.44 111.81 120.87 112.85 121.32C110.96 119.81 108.79 117.43 108.43 115.12L108.37 114.72L109.25 114.72L109.35 114.81C109.97 115.39 110.73 115.67 111.53 115.97C112.15 116.2 112.79 116.44 113.43 116.83C117.62 119.39 122.67 131.6 121.58 138.72L123.29 138.72L123.38 138.8C123.93 139.27 124.65 139.45 125.4 139.64C125.9 139.77 126.43 139.9 126.96 140.13C131.74 142.18 132.99 142.39 138.05 140.47C138.61 140.25 139.24 140.14 139.86 140.03C140.92 139.84 141.92 139.66 142.43 139.04C141.42 136.98 142.87 132.3 143.18 131.35C143.56 130.21 143.88 128.98 144.22 127.67C145.61 122.32 147.19 116.24 153.15 115.92L153.5 115.9L153.5 117.12L153.37 117.22C151.84 118.47 150.19 121.06 149.13 122.86C152.53 120.38 156.64 122.47 158.34 123.56C163.54 126.89 165.05 132.83 162.82 141.22C162.56 142.17 159.48 148.23 158.86 149.44C159.01 149.71 159.52 150.22 159.88 150.57C160.43 151.11 160.95 151.63 161.13 152.04L161.15 152.1L161.48 157.3L163.79 164.48C164.16 165.21 164.74 165.76 165.36 166.34C166.3 167.23 167.27 168.14 167.48 169.75L167.5 169.9L167.41 170.02C167.36 170.08 167.33 170.13 167.3 170.16C167.28 170.18 167.27 170.2 167.26 170.21C167.26 170.21 167.26 170.22 167.25 170.25C167.23 170.31 167.2 170.42 167.13 170.61L167.07 170.76L165.61 171.26C167.03 171.47 168.1 172.05 168.17 174.3ZM107.64 134.65C106.61 134.23 106.23 133.56 105.76 132.74L105.73 132.7L105.29 132.7C105.38 133.22 105.5 133.59 105.63 134.01C105.71 134.28 105.8 134.56 105.89 134.9C106.36 135.22 106.68 135.52 107.01 135.96L107.09 135.89C107.57 135.47 107.57 135.47 107.63 134.79C107.63 134.75 107.63 134.7 107.64 134.65ZM110.75 127.81C110.59 127.72 110.44 127.62 110.3 127.53C109.66 127.12 109.14 126.79 108.12 126.61C107.13 127.68 106.88 128.34 106.95 130.95C106.97 130.96 106.98 130.98 106.99 130.99C107.1 131.12 107.12 131.16 107.17 131.31C107.19 131.36 107.21 131.43 107.25 131.54C107.77 131.89 108.11 132.22 108.48 132.73C110.32 131.95 110.75 129.69 110.75 127.81ZM155.81 133.5C156.54 132.04 157.12 130.86 157.39 128.82C157.17 128.66 156.99 128.51 156.83 128.38C156.32 127.96 156.03 127.71 154.78 127.63C154.57 127.83 154.36 127.98 154.17 128.12C153.78 128.4 153.48 128.62 153.23 129.15L153.21 129.19C152.97 129.56 152.98 130.17 153.22 130.92C153.59 132.05 154.48 133.26 155.12 133.51L155.21 133.55C155.25 133.57 155.28 133.58 155.3 133.59C155.39 133.56 155.54 133.53 155.81 133.5ZM158.74 133.82L158.22 133.65L156.08 136.09L156.28 136.7L156.96 136.7C157.83 136.07 158.38 135.2 158.74 133.82Z" />
		<path id="Layer" class="shp0" d="M129.51 170.54L129.61 170.65L129.76 170.65C129.84 170.65 129.92 170.65 130 170.65C134.21 170.65 140.25 167.74 142.24 163.71C143.32 161.53 143.05 159.33 141.48 157.35C140.83 155.66 136.76 152.16 134.53 152.7C134.27 152.76 133.99 152.87 133.69 152.98C132.94 153.27 132.09 153.59 131.23 153.39C130.99 153.33 130.77 153.25 130.53 153.15C129.99 152.94 129.39 152.7 128.39 152.69L128.27 152.69L128.17 152.77C127.61 153.22 126.89 153.5 126.13 153.79C125.4 154.07 124.65 154.37 124.03 154.83C123.39 155.31 123.03 156.02 122.68 156.7C122.37 157.32 122.07 157.9 121.6 158.29L121.47 158.39L121.47 158.55C121.4 165.25 123.51 166.45 125.95 167.84C127.12 168.53 128.33 169.21 129.51 170.54Z" />
		<path id="Layer" class="shp0" d="M144.38 177C143.78 176.43 143.38 175.68 143.07 175.03L143 174.89L138.89 173.77L138.76 173.86C137.72 174.56 136.18 174.79 134.7 175C133.76 175.14 132.78 175.28 131.94 175.54C131.15 175.79 130.37 176.06 129.62 176.32C126.69 177.34 123.66 178.4 119.27 178.28L118.69 178.26L118.95 178.78C119.95 180.79 121.72 181.49 123.85 181.49C126.52 181.49 129.77 180.38 132.79 179.35C135.9 178.29 138.84 177.28 140.19 177.91L140.25 177.94L140.31 177.94C142.14 178.08 142.45 178.76 142.76 180.42L142.81 180.7L144.07 180.7L144.13 180.42C144.33 179.44 144.49 178.58 144.48 177.24L144.48 177.09L144.38 177Z" />
		<path id="Layer" fill-rule="evenodd" class="shp0" d="M222.52 79.5L222.52 82.7L221.52 82.7L221.52 83.18L213.98 83.87C213.99 87.98 213.88 91.95 212.71 95.31C212.76 95.32 212.8 95.34 212.85 95.35C213.54 95.55 214.23 95.78 214.92 96.06C215.61 96.36 216.3 96.68 217 97.2C217.34 97.46 217.7 97.77 218.02 98.23C218.06 98.29 218.1 98.34 218.14 98.4L218.25 98.6C218.32 98.73 218.38 98.87 218.43 99.03C218.54 99.33 218.59 99.68 218.58 100.01C218.57 100.17 218.56 100.35 218.52 100.5C218.48 100.65 218.44 100.8 218.39 100.95C218.27 101.2 218.15 101.48 218 101.67C217.93 101.77 217.86 101.88 217.78 101.97L217.55 102.23C217.4 102.41 217.24 102.53 217.08 102.68C216.86 102.88 216.64 103.03 216.42 103.2C216.2 103.34 215.98 103.49 215.76 103.63C215.54 103.76 215.32 103.89 215.1 104.01L214.44 104.36C213.92 104.62 213.41 104.86 212.89 105.09C212.54 105.3 212.18 105.5 211.83 105.7C209.17 107.19 206.65 108.61 205.53 111.66L205.58 111.66L205.68 111.81C206.65 113.28 208.83 114.13 210.76 114.87C212.66 115.6 214.31 116.24 214.64 117.39L214.69 117.58L214.56 117.72C214.19 118.12 214.17 118.19 213.96 118.92L213.89 119.17L213.67 119.2C211.99 119.44 210.38 120.35 208.82 121.24C208.08 121.67 207.31 122.1 206.54 122.46C207.83 125.31 209.72 131.72 208.11 135.45L208.02 135.66L206.46 135.66L206.36 135.5C205.34 133.85 203.71 131.92 202.27 130.6C202.52 131.45 202.48 132.48 202.43 133.54C202.38 134.65 202.33 135.8 202.57 136.95C203.39 140.98 201.77 147.56 200.58 152.36C200.3 153.47 200.04 154.52 199.85 155.4L199.79 155.67L198.5 155.67L198.5 155.73C198.5 155.73 197.43 154.41 197.07 153.36C195.56 166.28 188.9 176.47 183.97 183.06C183.76 183.33 183.55 183.63 183.32 183.94C181.58 186.34 179.2 189.63 176.14 190.1L175.72 190.16L176.02 185.15C174.92 186.33 174.03 187.78 173.18 189.19C172.37 190.53 171.52 191.93 170.48 193.1C167.73 196.2 164.31 198.23 160.68 200.38C159.9 200.84 159.1 201.31 158.31 201.8C157.72 202.16 157.2 202.55 156.69 202.93C155.1 204.11 153.61 205.22 150.54 205.31L150.05 205.32L151.78 200.67L151.73 200.67C149.34 202.81 139.03 206.81 131.36 206.81C129.88 206.81 128.5 206.67 127.29 206.33C123.99 205.42 120.99 203.78 118.09 202.19C116.89 201.54 115.75 200.91 114.51 200.34L114.51 201.38C115.21 202.08 115.25 202.61 115.29 203.92L115.3 204.17L115.06 204.25C114.36 204.49 112.53 204.67 112.53 204.67L112.52 204.67L112.42 204.59C110.94 203.42 109.3 202.61 107.55 201.75C106.3 201.14 105.01 200.5 103.8 199.73C100.14 197.39 96.83 194.05 93.67 189.52C93.32 189.02 92.93 188.56 92.52 188.08C91.78 187.2 91.01 186.3 90.5 185.13L90.5 186.29L90.44 186.38C90.09 186.91 90.12 188.18 90.15 189.2L90.16 189.67L88.58 189.67L88.48 189.51C87.56 188.09 86.15 186.9 84.8 185.75C83.52 184.67 82.2 183.55 81.23 182.2C75.87 174.77 69.87 164.09 70.73 147.05C70.5 147.39 70.3 147.76 70.1 148.14C69.58 149.12 69.05 150.13 67.8 150.59L67.51 150.7L67.04 149.75C65.72 148.05 65.93 145.46 66.14 142.95C66.22 142.02 66.3 141.06 66.3 140.15C66.31 129.89 67.36 123.36 69.9 117.83C69.3 118.45 68.72 119.01 68.16 119.56C65.65 122.02 63.67 123.96 62.13 128.07L62.01 128.39L61.69 128.27C61.52 128.21 61.42 128.18 61.36 128.16C61.21 128.11 61.16 128.09 61.04 127.99C61.01 127.96 60.97 127.92 60.9 127.87L60.83 127.8C58.56 124.53 59.77 117.38 61 113.9C58.28 113.29 55.23 112.22 54.56 109.54L54.47 109.19L54.82 109.11C57.55 108.5 60.97 107.36 62.29 104.46C61.96 104.3 61.62 104.13 61.27 103.96C60.23 103.45 59.14 102.92 57.99 102.27C57.84 102.3 57.7 102.33 57.56 102.36C57.38 102.4 57.21 102.43 57.04 102.47L56.79 102.52L56.66 102.3C56.55 102.11 56.44 101.95 56.35 101.8C56.04 101.32 55.81 100.95 55.64 100.11C55.34 99.69 55.07 99.25 54.91 98.76C54.84 98.54 54.74 98.28 54.69 98.03C54.63 97.78 54.62 97.54 54.62 97.39C54.74 96.81 55.01 96.34 55.31 95.94C55.61 95.55 56.06 94.03 56.43 93.67C53.48 89.75 53.46 82.64 53.5 75.67L53.35 75.67C52.89 76.43 52.04 77.62 50.97 78.14L50.5 78.37L50.5 77.68C50.37 77.62 50.33 77.61 50.33 77.61C50.15 77.58 50.03 77.44 50.02 77.25C50.02 77.25 50 77.17 49.89 76.95C48.88 75.75 49.02 73.64 50.3 70.67L46.67 70.67L46.57 70.44C46.44 70.23 46.32 70.06 46.22 69.92C45.77 69.3 45.55 68.93 45.48 67.51L45.47 67.37L45.56 67.26C47.98 64.55 50.26 58.08 52.09 52.88C52.82 50.8 53.51 48.84 54.13 47.33C54.47 46.48 54.75 45.62 55.02 44.78C55.71 42.65 56.35 40.63 58.03 39.25C62.41 35.64 70.82 39.09 73.58 40.23C83.7 44.39 92.19 50.35 96.87 56.58C97.37 57.24 98.31 58.78 99.4 60.56C100.97 63.13 103.3 66.94 104.19 67.75C105.75 66.66 107.81 66.37 109.98 66.06C111.13 65.9 112.33 65.73 113.43 65.43C115.7 64.81 118.58 64.22 121.75 63.74C121.75 63.73 121.76 63.71 121.76 63.69C121.83 63.45 121.72 63.29 121.71 63.1C121.72 63.1 121.73 63.09 121.74 63.09L121.71 63.09C122.18 62.56 122.14 61.89 122.23 61.27C122.37 60.19 122.65 59.15 122.96 58.12C123.09 57.66 123.3 57.22 123.48 56.77C123.5 56.73 123.52 56.68 123.52 56.64C123.54 55.63 124.04 54.74 124.25 53.77C124.43 52.95 124.8 52.18 125.03 51.38C125.2 50.81 125.28 50.22 125.39 49.64L125.99 46.48C126.12 45.79 126.22 45.09 126.53 44.45C126.57 44.36 126.55 44.24 126.54 44.13C126.53 44.05 126.47 43.94 126.5 43.88C126.79 43.37 126.55 42.79 126.73 42.26C126.9 41.76 126.97 41.23 127.09 40.71C127.48 39.06 127.86 37.4 128.25 35.75C128.49 34.68 128.68 33.6 128.95 32.53C129.19 31.57 129.52 30.63 129.79 29.68C129.92 29.26 130 28.83 130.1 28.4C130.12 28.3 130.13 28.19 130.16 28.08C130.35 27.37 130.56 26.66 130.74 25.95L130.76 25.89C130.8 25.75 130.85 25.62 130.92 25.5L130.98 25.4L131.02 25.33C131.33 24.85 131.63 24.49 131.98 24.13C132.33 23.78 132.7 23.46 133.12 23.19L133.48 22.96L133.86 22.76C133.99 22.7 134.12 22.63 134.25 22.58C134.39 22.53 134.52 22.48 134.66 22.44C134.84 22.37 135.01 22.33 135.19 22.29C137.32 20.04 141.02 16.95 145.34 16.78C151.92 16.53 154.07 22.38 162.26 26.99C162.49 27.12 162.39 27.47 162.13 27.46C160.97 27.41 158.98 27.25 156.9 26.74C156.63 26.67 156.47 27.02 156.69 27.18C158.48 28.51 160.5 30.6 162.04 33.8C164.93 39.8 171.53 44.38 176.33 46.1C176.61 46.2 176.51 46.61 176.22 46.58C172.98 46.24 167.78 45.4 164.38 43.36C164.2 43.25 163.97 43.41 164.01 43.62C164.2 44.65 164.69 46.93 165.57 48.71C165.69 48.96 165.39 49.19 165.18 49.01C163.22 47.26 160.54 44.57 159.24 41.97C159.12 41.72 158.75 41.82 158.77 42.1C159.05 45.26 160.5 52.81 167.77 57.32C170.98 53.38 174.45 50.81 178.7 47.67L179.33 47.2C180.26 46.51 181.16 45.81 182.03 45.13C187.71 40.69 192.62 36.86 203.76 38.15L203.91 38.17L204 38.29C204.49 38.97 205.09 39.58 205.73 40.22C206.8 41.3 207.9 42.41 208.53 43.89C209.56 46.3 210.28 48.95 210.97 51.51C211.73 54.31 212.51 57.21 213.71 59.77C214.24 60.91 215.11 62.21 216.03 63.6C217.8 66.27 219.8 69.29 219.96 71.99L219.97 72.11L219.9 72.21C219.73 72.45 219.73 72.45 219.67 72.78C219.66 72.87 219.64 72.98 219.61 73.11L219.56 73.7L214.01 73.7C214.01 73.7 215.45 74.77 216.08 75.53C216.72 76.31 217.33 77.05 218.09 77.6C218.28 77.74 219 78.06 219.64 78.35C221.05 78.99 221.48 79.2 221.62 79.41L222.52 79.5ZM53.5 75.67L53.5 75.29C53.5 75.42 53.5 75.54 53.5 75.67L53.5 75.67ZM155.54 46.83C155.43 46.68 155.19 46.69 155.11 46.86C154.72 47.66 153.86 49.65 154.08 51.51C154.11 51.77 153.78 51.9 153.63 51.68C151.92 49.16 148.83 44.49 146.02 39.46C144.62 36.96 142.9 34.64 140.94 32.55L140.73 33.57L139.89 37.37L138.87 42.22C138.86 42.26 138.87 42.31 138.85 42.35C138.55 43.07 138.53 43.84 138.4 44.6C138.27 45.36 138.15 46.14 137.89 46.86C137.54 47.84 137.57 48.9 137.18 49.87C136.93 50.47 136.92 51.16 136.78 51.8L136.31 53.93C136.25 54.18 136.24 54.45 136.2 54.71C136.11 55.26 135.96 55.79 135.92 56.34C135.82 57.69 135.55 59 135.28 60.32C135.24 60.51 135.22 60.71 135.23 60.91C135.25 61.48 135.26 62.05 135.3 62.62C139.82 62.55 144.12 62.86 147.47 63.74C148.07 63.89 148.75 64.04 149.46 64.2C150.98 64.54 152.71 64.92 154.08 65.48C154.76 65.76 155.37 66.1 155.96 66.43C157.07 67.05 158.12 67.64 159.59 67.84C160.41 65.6 162.17 63.76 163.88 61.97C164.84 60.96 165.75 60.01 166.46 59.03C166.74 58.65 167.01 58.29 167.29 57.93C164.77 56.87 160.68 54.1 155.54 46.83ZM147.05 33.72C147.39 33.09 147.87 32.63 147.94 31.9C148.03 32.26 148.11 32.64 148.16 33.04C149.05 39.81 152.03 41.56 152.03 41.56C148.55 38.26 149.47 32.21 148.16 29.4C146.85 26.59 142.83 25.86 142.83 25.86C142.96 26.1 144.41 26.67 145.78 28.06C146.22 28.5 146.51 29.06 146.63 29.67C146.81 30.65 146.92 31.83 146.49 32.4C145.69 33.47 146.98 36.81 147.8 38.31C147.8 38.31 146.44 34.82 147.05 33.72ZM143.45 23.99C144.67 24.56 145.78 25.13 146.78 25.67C148.49 26.6 149.95 27.92 151.01 29.56C151.98 31.06 152.9 32.87 153.2 34.64C153.67 37.43 155.49 41.56 156.69 44.1C156.05 42.09 155.45 39.1 154.9 36.18C154.32 33.11 153.42 30.87 152.9 29.73C155.69 32.11 156.01 33.59 156.01 33.59C156.59 37.37 158.26 38.46 158.26 38.46C157.24 36.71 158.26 35.55 158.26 35.55C160.8 39.98 164.36 40.46 164.36 40.46C160.65 38.83 160.29 34.24 156.15 29.59C152.01 24.94 143.44 23.98 143.45 23.99ZM144.09 19.1C141.7 19.42 138.81 21.84 138.03 22.52C138.16 22.54 138.29 22.56 138.41 22.61C138.63 22.64 138.85 22.67 139.07 22.7L140.16 22.7C140.39 22.59 142.93 20.61 143.77 20.42C146.21 19.88 152.19 21.86 153.01 22.17C151.84 21.25 147.24 18.69 144.09 19.1ZM125.34 63.34C125.35 63.34 125.35 63.34 125.36 63.34C125.36 63.33 125.36 63.32 125.37 63.31L125.36 63.34C126.83 63.17 128.34 63.02 129.86 62.91C129.96 62.45 130.09 62 130.17 61.54L130.3 60.83C130.37 60.4 130.37 59.95 130.63 59.56C130.64 59.54 130.65 59.52 130.65 59.5C130.69 59.17 130.74 58.85 130.8 58.53C130.31 58.59 130.02 58.66 130.01 58.66C129.94 58.67 129.87 58.68 129.8 58.68C129.39 58.68 129.02 58.4 128.92 57.98C128.8 57.49 129.1 57 129.59 56.89C129.63 56.88 130.21 56.75 131.12 56.66C131.19 56.32 131.28 55.98 131.37 55.64C131.42 55.45 131.49 55.26 131.54 55.07C131.65 54.66 131.75 54.26 131.83 53.85C131.9 53.46 131.96 53.07 132.02 52.68C131.5 52.75 131.19 52.82 131.18 52.82C131.11 52.83 131.04 52.84 130.97 52.84C130.56 52.84 130.19 52.56 130.09 52.14C129.97 51.65 130.27 51.16 130.76 51.05C130.81 51.04 131.49 50.88 132.54 50.8C132.56 50.74 132.57 50.67 132.59 50.6C132.93 49.38 133.25 48.15 133.57 46.92C132.84 46.99 132.38 47.1 132.37 47.1C132.3 47.11 132.23 47.12 132.16 47.12C131.75 47.12 131.38 46.84 131.28 46.42C131.16 45.93 131.46 45.44 131.95 45.33C132.01 45.32 132.82 45.13 134.05 45.06C134.38 43.76 134.7 42.47 135.02 41.17C134.13 41.24 133.57 41.37 133.56 41.37C133.49 41.38 133.42 41.39 133.35 41.39C132.94 41.39 132.57 41.11 132.47 40.69C132.35 40.2 132.65 39.71 133.14 39.6C133.19 39.59 134.1 39.38 135.45 39.32C135.71 38.2 135.96 37.09 136.22 35.97C136.27 35.76 136.32 35.54 136.37 35.33C135.38 35.4 134.74 35.55 134.73 35.55C134.66 35.56 134.59 35.57 134.52 35.57C134.11 35.57 133.74 35.29 133.64 34.87C133.52 34.38 133.82 33.89 134.31 33.78C134.37 33.77 135.34 33.54 136.79 33.49C137.09 32.23 137.37 30.96 137.66 29.7C136.62 29.76 135.95 29.92 135.94 29.92C135.87 29.93 135.8 29.94 135.73 29.94C135.32 29.94 134.95 29.66 134.85 29.24C134.73 28.75 135.03 28.26 135.52 28.15C135.58 28.13 136.59 27.9 138.07 27.85C138.09 27.8 138.1 27.74 138.11 27.69C138.23 27.15 138.35 26.61 138.46 26.06L138.44 26.05L138.21 25.98C138.13 25.96 138.06 25.95 137.98 25.94L137.56 25.86C137.42 25.84 137.29 25.84 137.15 25.83L136.95 25.81C136.89 25.81 136.82 25.82 136.76 25.82C136.64 25.84 136.5 25.83 136.38 25.85C135.87 25.92 135.42 26.09 135 26.35C134.9 26.41 134.82 26.48 134.73 26.54C134.64 26.6 134.57 26.68 134.48 26.75C134.37 26.86 134.26 26.99 134.17 27.1L132.28 34.98C131.85 36.8 131.4 38.63 131 40.46C130.68 41.9 130.43 43.36 130.14 44.81C129.99 45.59 129.83 46.37 129.63 47.14L127.28 56.32L126.59 59.08C126.55 59.25 126.52 59.43 126.45 59.59C126.16 60.28 125.97 61 125.81 61.74C125.7 62.26 125.5 62.75 125.34 63.25C125.34 63.26 125.33 63.28 125.34 63.34ZM125.37 63.3C125.37 63.3 125.37 63.31 125.37 63.31L125.37 63.3ZM207.77 70.75L209.06 70.32C209.75 69.92 210.82 69.93 211.96 69.95C212.71 69.96 213.48 69.97 214.04 69.85C210.42 66.93 208.36 61.21 206.53 56.13C205.92 54.44 205.35 52.84 204.74 51.4C204.47 50.77 204.24 50.11 203.99 49.4C202.98 46.54 201.94 43.58 198.91 43.31C198.27 43.68 197.6 43.71 196.89 43.73C196.32 43.75 195.74 43.77 195.12 43.97C193.27 44.58 190.7 45.96 188.96 47.05C181.84 51.53 174.85 58.63 167.6 68.76C167.02 69.58 166.23 70.29 165.48 70.97C164.6 71.77 163.69 72.6 163.12 73.58L162.97 73.84L162.69 73.72C152.14 69.36 136.02 65.81 122.4 68.89C120.44 69.33 118.41 69.62 116.45 69.9C113.97 70.26 111.4 70.62 108.92 71.31C108.39 71.45 107.84 71.62 107.25 71.8C105.12 72.45 102.71 73.18 100.84 73.05L100.64 73.04L100.55 72.86C94.41 60.04 85.45 51.51 72.34 46.04C71.61 45.74 70.88 45.4 70.11 45.05C67.47 43.84 64.48 42.47 61.2 42.27C60.88 42.6 60.49 42.93 60.08 43.27C59.37 43.87 58.63 44.49 58.28 45.14L57.92 47.59C57.11 49.57 56.46 51.66 55.77 53.88C55.12 55.97 54.45 58.13 53.63 60.21C53.28 61.11 52.85 61.97 52.35 62.8C51.51 64.2 50.63 65.45 50.12 66.83C50.57 66.82 51 66.8 51.38 66.79C52.45 66.75 53.3 66.71 54.18 66.84L54.48 66.88L54.48 69.06L54.69 69.16C54.17 69.67 53.83 70.29 53.52 71C54.51 70.12 55.8 69.75 57.26 69.95L57.48 69.99L57.48 72.12L57.5 72.2C56.95 73.06 57.06 74.73 57.17 76.34C57.24 77.38 57.31 78.44 57.2 79.31C56.9 81.7 58.03 85.03 59.11 88.26C59.89 90.59 60.64 92.83 60.9 94.75C62.52 95.01 64.19 95.33 65.86 95.73C65.89 95.73 65.93 95.74 65.96 95.75C66.04 95.77 66.13 95.79 66.22 95.81C66.99 96.01 67.4 96 67.99 96.1C68 96.11 68.02 96.12 68.03 96.13C68.03 96.13 68.02 96.12 68.02 96.11C69.86 96.81 71.9 97.15 73.83 97.56C74.02 97.61 74.22 97.65 74.41 97.69C76.03 96.69 77.8 95.93 79.51 95.2C81.35 94.42 83.26 93.6 84.99 92.47C86.09 91.74 86.88 90.49 87.65 89.28C87.99 88.75 88.33 88.2 88.7 87.71C90.82 84.87 94.94 81.05 99.59 79.64C107.81 77.15 115.87 81.85 119.94 84.87C120.31 85.14 120.7 85.4 121.11 85.68C122.91 86.89 124.95 88.26 125.26 90.98L125.28 91.12L125.19 91.23C125.13 91.29 125.1 91.34 125.07 91.37C125.05 91.39 125.04 91.41 125.03 91.42C125.03 91.42 125.03 91.44 125.02 91.46C125 91.52 124.96 91.63 124.89 91.82L124.81 91.7L123.31 91.7L123.22 91.84C120.79 86.31 107.21 81.47 99.14 84.77C97.13 85.59 95.67 87 94.27 88.36C93.45 89.15 91.66 90.71 91.66 90.71L92 90.71C92 90.71 99.7 89.86 107.77 92.65L108.47 92.84L108.47 93.71L106.16 93.71L106.07 94.07C104.92 93.32 94.05 93.87 91.84 94.46C87.71 95.57 84.65 97.34 81.86 99.37C82.52 99.52 83.18 99.67 83.84 99.83C85.33 100.17 86.79 100.57 88.27 100.93C88.32 100.94 88.36 100.95 88.41 100.96C88.61 100.96 88.8 100.99 88.99 101.07C89 101.07 89 101.07 89 101.07C90.44 101.3 91.87 101.61 93.29 101.91L95.58 102.41C96.34 102.57 97.11 102.71 97.88 102.85C98.45 102.96 99.01 103.06 99.58 103.16C99.71 103.14 99.85 103.13 99.99 103.15C100.16 103.18 100.32 103.24 100.46 103.32C100.89 103.4 101.33 103.48 101.76 103.56C102.41 103.69 103.05 103.78 103.7 103.89C104.35 103.99 104.99 104.1 105.65 104.18C107.5 104.41 109.38 104.58 111.25 104.75C114.63 105.06 118.02 105.33 121.41 105.55C123.63 105.7 125.85 105.78 128.05 106.03C128.35 106.06 128.71 106.04 129.04 106.03C129.31 106.02 129.6 105.97 129.8 105.99C130.68 106.09 131.53 106.1 132.38 106.09C133.23 106.08 134.07 106.04 134.95 106.09C135.78 106.13 136.62 106.17 137.46 106.18C138.3 106.19 139.14 106.2 139.98 106.21C145.36 106.28 150.73 106.2 156.08 105.9C159.55 105.69 163 105.38 166.44 104.99C167.99 104.82 169.55 104.67 171.09 104.45C172.64 104.25 174.18 104.06 175.73 103.8C177.1 103.58 178.47 103.34 179.84 103.07C180.18 103 180.52 102.93 180.86 102.86L182.65 102.54L186.21 101.84C186.61 101.76 187.01 101.67 187.41 101.58C182.08 98.12 176.1 95.19 170.83 94.46L170.47 94.42L170.47 92.76L170.81 92.75C175.14 92.65 178.49 93.13 181.57 94.32C180.04 93.24 178.9 91.67 177.79 90.15C176.65 88.58 175.56 87.1 174.1 86.11C172.83 85.25 170.29 84.17 168.98 83.72C160.52 80.79 154.09 86.47 149.39 90.61C148.84 91.1 148.32 91.56 147.82 91.98C147.41 92.33 147.17 92.7 146.92 93.09C146.51 93.73 146.08 94.39 144.94 94.81L144.47 94.98L144.47 93.68L144.56 93.58C145.07 93.03 145.37 92.33 145.69 91.59C145.95 90.99 146.22 90.37 146.61 89.81C149.46 85.72 152.67 81.56 157.85 79.65C163.2 77.68 168.78 79.9 171.63 81.4L171.88 81.53C175.13 83.24 177.7 84.59 179.98 86.27C180.66 86.77 181.08 87.46 181.49 88.13C181.69 88.45 181.89 88.79 182.12 89.09L188.02 94.65C188.34 95.08 188.65 95.57 188.98 96.08C189.62 97.08 190.28 98.11 191.07 98.73C191.72 99.24 192.4 99.74 193.1 100.27L194.61 99.87C195.89 99.55 197.16 99.18 198.43 98.83C199.37 98.57 200.3 98.3 201.23 98.03C202.16 97.74 203.09 97.48 204.01 97.17C204.61 96.97 205.21 96.77 205.81 96.57C206.15 95.31 206.66 94.11 207.16 92.94C207.67 91.74 208.21 90.5 208.53 89.23C209.16 86.81 208.92 83.81 208.71 81.17C208.63 80.15 208.55 79.18 208.52 78.26L208.51 77.97L208.79 77.91C209.05 77.85 209.47 77.79 209.96 77.72C210.87 77.59 212.14 77.41 212.94 77.16C211.25 75.95 208.09 72.41 207.83 71.04L207.77 70.75ZM61.88 102.63C62.16 102.72 62.45 102.81 62.73 102.89C62.74 101.39 62.98 99.59 63.75 97.73C63.1 97.55 62.6 97.36 62.13 97.14C60.44 96.49 58.75 95.84 57.06 95.19C57.06 95.2 57.05 95.2 57.05 95.21L57.05 95.22C56.92 95.42 56.82 95.62 56.68 95.8C56.4 96.22 55.9 97.68 55.82 98.04C55.75 98.4 55.79 98.68 55.91 98.98C56.14 99.58 56.91 100.27 57.81 100.85C59.01 101.62 60.44 102.18 61.88 102.63ZM66.33 98.39C65.45 100.31 65.3 102.2 65.37 103.6C65.7 103.68 66.03 103.75 66.36 103.83C68.96 104.43 71.6 104.83 74.29 105.33C74.01 104.03 73.9 102.38 74.24 100.4C72.7 100.03 71.17 99.62 69.63 99.22L69.64 99.24C69.48 99.2 69.31 99.16 69.14 99.12L69.16 99.11C68.21 98.87 67.27 98.63 66.33 98.39ZM89.24 103.86C88.69 105.42 88.63 106.52 88.73 107.26C89.72 107.38 90.72 107.57 91.72 107.72C92.27 107.8 92.84 107.9 93.37 107.94C94.83 108.05 96.29 108.23 97.74 108.41C97.91 108.43 98.08 108.45 98.25 108.47C98.23 107.65 98.24 106.69 98.34 105.64C96.2 105.26 94.08 104.85 91.96 104.42C91.05 104.24 90.14 104.04 89.24 103.86ZM100.92 106.08C100.84 107.11 100.84 108.04 100.88 108.79C101.27 108.84 101.67 108.89 102.07 108.93C102.83 109.02 103.59 109.09 104.35 109.16C105.73 109.29 107.13 109.38 108.47 109.63C108.53 109.64 108.6 109.65 108.67 109.65C108.97 109.67 109.27 109.7 109.57 109.72C109.56 108.97 109.57 108.12 109.67 107.21C108.76 107.11 107.84 107.01 106.93 106.9L105.05 106.68L103.16 106.42C102.41 106.32 101.67 106.2 100.92 106.08ZM200.25 101.19C201.16 102.98 200.59 104.93 199.74 106.49C201.89 105.9 204.02 105.27 206.12 104.57C207.01 103.59 208.99 101.07 208.09 98.67C205.5 99.6 202.88 100.43 200.25 101.19ZM194.92 102.6C193.9 102.87 192.86 103.1 191.83 103.35C190.8 103.6 189.76 103.83 188.73 104.06C188.71 104.06 188.69 104.07 188.67 104.07C189.02 106.17 188.66 107.94 188.09 109.32C190.64 108.77 193.18 108.18 195.71 107.54C196.62 106.63 198.79 103.91 197.88 102.29C197.81 102.15 197.76 102.01 197.74 101.87C196.8 102.12 195.87 102.37 194.92 102.6ZM178.12 106.18C178.44 107.77 177.75 109.83 177.06 111.35L177.21 111.33C178.44 111.19 179.7 110.96 180.94 110.74C182.18 110.52 183.43 110.29 184.67 110.04C184.68 110.03 184.69 110.03 184.7 110.03C185.4 109.12 186.51 107.22 186.11 104.63C183.45 105.19 180.79 105.71 178.12 106.18ZM175.32 106.66C172.59 107.09 169.85 107.49 167.11 107.81C167.11 109.11 166.66 110.7 166.12 112.14C167.32 112.1 168.51 112.05 169.71 111.99L171.6 111.89C172.23 111.85 172.85 111.78 173.48 111.73L173.95 111.69C175.09 109.67 175.82 107.33 175.54 106.62C175.47 106.63 175.4 106.65 175.32 106.66ZM161.75 108.33C159.96 108.48 158.18 108.6 156.39 108.7C156.14 109.81 155.66 111.14 155.21 112.24C157.9 112.26 160.59 112.26 163.28 112.21C163.94 110.61 164.42 109.01 164.52 108.09C163.59 108.18 162.67 108.26 161.75 108.33ZM200.09 112.23C199.45 111.42 198.83 110.65 198.19 109.94C197.3 110.17 196.4 110.4 195.5 110.63C192.25 111.45 188.97 112.17 185.68 112.83C185.62 112.85 185.56 112.86 185.5 112.87C184.8 113.01 184.1 113.16 183.39 113.29C182.1 113.53 180.8 113.77 179.5 113.99C178.85 114.1 178.18 114.17 177.52 114.27L176.53 114.41L176.03 114.48L175.54 114.53L173.56 114.71C172.9 114.77 172.24 114.84 171.58 114.87C170.26 114.95 168.94 115.05 167.63 115.1C167.49 115.11 167.35 115.12 167.21 115.12C166.38 115.11 165.55 115.13 164.73 115.16C164.59 115.2 164.45 115.23 164.3 115.23C164.19 115.23 164.08 115.21 163.97 115.18C163.83 115.19 163.69 115.19 163.55 115.2C162.33 115.24 161.12 115.28 159.9 115.32C158.67 115.37 157.43 115.36 156.2 115.37C154.96 115.37 153.74 115.37 152.53 115.31C150.9 115.23 149.26 115.24 147.63 115.22C146.16 115.2 144.69 115.17 143.22 115.09C143.04 115.18 142.84 115.23 142.63 115.23C142.49 115.23 142.36 115.21 142.23 115.17C142.12 115.13 142.01 115.08 141.91 115.01C140.13 114.91 138.27 114.91 136.46 114.84C134.16 114.72 131.86 114.62 129.56 114.48C128.72 114.44 127.89 114.42 127.05 114.38C125.31 114.31 123.55 114.15 121.83 114.09C118.5 113.97 115.17 113.73 111.83 113.44C111.77 113.45 111.72 113.46 111.66 113.46C111.52 113.46 111.39 113.43 111.26 113.39C110.54 113.32 109.81 113.26 109.08 113.19C108.46 113.13 107.82 113.09 107.21 113.06C105.5 112.98 103.8 112.91 102.11 112.83C100.42 112.74 98.73 112.67 97.08 112.63C95.22 112.58 93.15 112.38 91.15 112.17C87.55 111.8 83.89 111.36 80.37 110.63C78.08 110.16 75.81 109.64 73.52 109.09C72.92 108.94 72.29 108.8 71.71 108.64C71.25 108.51 70.79 108.38 70.33 108.24C69.3 108.84 68.28 109.41 67.32 109.88C66.51 110.28 65.12 110.71 64.23 110.86C63.71 110.95 63.21 111.03 62.75 111.16L65.55 111.41L65.54 111.73C65.46 114.14 64.76 116.34 64.08 118.47C63.84 119.2 63.62 119.91 63.42 120.61C63.51 120.53 63.59 120.44 63.68 120.36C66.57 117.61 70.16 114.18 75.15 113.79L75.53 113.76L75.52 115.02C75.48 117.74 74.43 119.82 73.41 121.84C72.87 122.91 72.31 124.02 71.93 125.19C70.36 130.03 70.35 135.28 70.34 140.83C70.33 141.51 70.33 142.2 70.33 142.88C71.59 141.95 72.43 140.61 73.31 139.2C73.72 138.55 74.14 137.87 74.61 137.24C77.06 133.94 84.48 126.84 88.05 125.12L88.52 124.89L88.52 126.13L88.41 126.23C85.61 128.93 83.21 132.37 80.88 135.7C80.12 136.79 79.33 137.91 78.56 138.97C78.14 139.55 77.22 140.45 76.25 141.4C75.11 142.52 73.82 143.79 73.51 144.38L73.51 149.05C74.31 150.57 74.15 152.65 73.99 154.85C73.85 156.76 73.71 158.74 74.18 160.45C76.05 167.22 81.14 178.16 86.09 181.96C85.98 179.87 85.93 177.61 87.32 176.82C88.27 176.18 89.38 176.6 90.09 177.2C91.48 178.59 92.46 180.31 93.4 181.97C93.89 182.82 94.38 183.69 94.93 184.52C98.04 189.21 104.08 194.98 110.11 196.73L111.1 193.71L111.33 193.7C111.9 193.67 112.27 193.66 112.63 193.66C112.92 193.66 113.2 193.67 113.55 193.68C113.87 193.68 114.25 193.69 114.77 193.7L114.74 193.7L114.84 193.84C115.67 194.96 116.86 195.37 118.24 195.84C118.79 196.03 119.36 196.22 119.94 196.47L120.88 196.88C127.25 199.63 132.75 202 140.97 198.87C141.72 198.59 142.86 197.96 144.18 197.23C147.78 195.25 152.25 192.79 154.22 194.11L154.27 194.14L154.3 194.19C154.59 194.57 154.76 195 154.93 195.41C155.14 195.93 155.33 196.4 155.74 196.71C157.39 195.42 159.2 194.37 160.94 193.36C163.9 191.64 166.7 190.02 168.75 187.32C169.29 186.6 169.9 185.6 170.56 184.54C172.63 181.18 175.21 177 178.4 176.54L178.55 176.52L178.67 176.61C178.73 176.66 178.78 176.69 178.81 176.72C178.83 176.74 178.85 176.75 178.86 176.76C178.86 176.76 178.87 176.76 178.9 176.77C178.97 176.8 179.08 176.83 179.27 176.9L179.5 176.98L179.5 177.81C180.01 178.69 179.97 179.74 179.94 180.66C179.93 181.13 179.91 181.59 179.97 181.97C180.46 181.36 181.04 180.82 181.6 180.3C182.27 179.68 182.91 179.09 183.4 178.4C186.28 174.38 188.99 169.41 191.04 164.4C191.6 163.03 191.74 161.62 191.88 160.13C191.99 158.98 192.1 157.79 192.42 156.55C192.5 156.27 192.62 155.85 192.76 155.35C193.41 153.1 194.61 148.92 194.17 147.47C193.09 143.97 188.71 139.34 184.85 135.26C182.92 133.23 181.1 131.31 179.9 129.74C179.43 129.12 178.82 128.59 178.18 128.03C176.98 126.99 175.74 125.91 175.3 124.13L175.19 123.71L176.13 123.71L176.23 123.82C177.65 125.3 179.54 126.51 181.37 127.69C182.33 128.31 183.32 128.95 184.22 129.61L184.27 129.66L186.69 132.37C187.22 132.72 187.75 133.01 188.26 133.29C189.22 133.81 190.12 134.3 190.91 135.14C192.43 136.76 193.67 139.3 194.86 141.76C196.08 144.26 197.33 146.83 198.89 148.5C198.82 147.7 198.98 146.59 199.15 145.44C199.33 144.25 199.5 143.02 199.39 142.29C199.13 140.6 199.04 138.79 198.95 136.87C198.81 134.15 198.68 131.33 198 128.95C197.86 128.48 197.65 128.03 197.43 127.56C197.09 126.84 196.74 126.1 196.59 125.14L196.53 124.73L196.95 124.74C200.3 124.85 202.01 126.48 203.66 128.06C204.1 128.48 204.55 128.92 205.04 129.32C204.99 129.12 204.94 128.91 204.88 128.7C204.28 126.46 203.39 123.08 201.74 122.66L201.48 122.59L201.48 120.48L201.66 120.38C203.12 119.62 205.01 118.93 207.04 118.42C204.09 117.29 202.04 114.73 200.09 112.23ZM136.26 109.03L134.48 108.99L134.48 111.53C135.32 111.57 136.17 111.6 137.01 111.64C138.33 111.71 139.66 111.78 140.98 111.84C141.16 110.86 141.26 109.82 141.15 109.07C139.52 109.06 137.89 109.04 136.26 109.03ZM132.48 111.33C132.48 111.33 132.47 111.33 132.47 111.33L132.47 111.33L132.48 111.33ZM132.47 111.33L132.47 108.92C131.58 108.89 130.68 108.85 129.79 108.82C128.53 108.78 127.26 108.7 125.99 108.63L125.09 108.58C125.12 109.53 125.14 110.32 125.15 110.93C125.79 110.98 126.43 111.02 127.07 111.05C128.39 111.13 129.71 111.18 131.03 111.24C131.3 111.25 131.63 111.21 131.83 111.24C132.05 111.27 132.25 111.3 132.47 111.33ZM121.97 108.38C118.73 108.13 115.5 107.83 112.27 107.49C112.18 108.38 112.17 109.23 112.2 109.93C113.35 110.03 114.51 110.12 115.66 110.19C117.49 110.3 119.26 110.47 121.06 110.61C121.47 110.65 121.89 110.68 122.31 110.72C122.3 110.17 122.28 109.41 122.25 108.39L121.97 108.38ZM86.65 103.3C85.46 103.04 84.26 102.78 83.07 102.52C82.52 102.4 81.96 102.28 81.43 102.14C79.89 101.74 78.34 101.36 76.78 100.99C76.44 103.12 76.74 104.72 77.1 105.74C80.07 106.18 83.06 106.57 86.06 106.93C86.03 105.96 86.18 104.76 86.65 103.3ZM153.64 108.83C150.48 108.96 147.33 109.03 144.17 109.05C144.26 110.02 144.17 111.04 144.02 111.94C146.81 112.05 149.6 112.13 152.39 112.19C152.81 111.21 153.32 109.92 153.64 108.83ZM212.07 98.02C211.63 97.89 211.16 97.76 210.72 97.66C210.66 97.68 210.6 97.7 210.54 97.73C211.24 99.57 210.93 101.45 210.21 103.08C210.25 103.07 210.3 103.05 210.35 103.03C211.51 102.55 212.68 102.04 213.71 101.45C214.24 101.16 214.71 100.84 215.07 100.52L215.2 100.4C215.24 100.36 215.27 100.32 215.31 100.28C215.34 100.24 215.38 100.21 215.41 100.17C215.43 100.14 215.46 100.1 215.48 100.07C215.49 100.05 215.5 100.03 215.51 100.02C215.51 100 215.51 99.99 215.52 99.98C215.52 99.96 215.55 99.93 215.55 99.92C215.55 99.91 215.55 99.9 215.56 99.89C215.56 99.88 215.56 99.88 215.56 99.88C215.56 99.87 215.55 99.85 215.51 99.78C215.46 99.69 215.31 99.55 215.14 99.41C214.78 99.13 214.28 98.86 213.75 98.63C213.22 98.4 212.65 98.2 212.07 98.02ZM123.49 63.52C123.52 63.52 123.56 63.51 123.59 63.51C123.55 63.51 123.52 63.52 123.49 63.52Z" />
	</g>
</svg>